#!OML:ASF F:\VICON\USERDATA\INSTALL\rory3\rory3.ASF
:FULLY-SPECIFIED
:DEGREES
56
root 0.7594811437313158 17.835208040571562 39.25281878444939 -3.554241253244003 -2.259355047454437 3.6117348038583827
lfemur 11.948918634142643 -4.945705345038932 -27.73198429379341
ltibia 20.812253944359114
lfoot -3.096309010610856 -7.449063429099956
ltoes -3.5483458221194843
rfemur -25.160738799275006 0.6662541445027159 18.03448809675723
rtibia 44.12506239772099
rfoot -9.557406033324678 -1.0148666327528444
rtoes -1.8110894762155971
lowerback -1.0 -1.27027647808278 -3.3551218566758103
upperback 0.19481317046186306 -2.1174169611365454 1.0755994946583405
thorax -4.908256818275334 -1.0458037736557073 2.944773063715397
lowerneck -16.361975687301932 -2.5417239555587217 -2.218014938019918
upperneck 22.502965408759568 -3.040153717860747 0.4856917444602055
head 9.873817358577192 -1.561403908775822 0.2612747550983752
lclavicle 4.221776807088791e-16 -7.887043469969889e-16
lhumerus -24.338421496121125 -0.24174221529036366 79.60198404489361
lradius 28.539576222544184
lwrist 5.877840444232826
lhand -28.339137581581596 20.40704174562462
lfingers nan
lthumb -1.6183618892414888 50.697261569148395
rclavicle 3.1761555291229493e-16 -8.671101109796897e-16
rhumerus -34.3130667224721 -21.120239473917042 -80.22599960579497
rradius 31.02732534406861
rwrist -0.19567417628269768
rhand -18.041950263523127 -1.0
rfingers nan
rthumb 8.48194142317394 -8.293499263120479
57
root 0.8139097926799677 17.849613552932887 40.51820672062716 -3.197614526353803 -2.507865265977082 2.8671834002599734
lfemur 11.929758337019276 -4.525271008610273 -26.61756684978922
ltibia 23.995609318347523
lfoot -3.212564790634826 -7.13495639375647
ltoes -2.9796609462521872
rfemur -25.035364086495655 1.0875595909906464 19.204001172823787
rtibia 39.601689929220875
rfoot -10.401508832919243 -1.7615446658132754
rtoes -2.7399800358902238
lowerback -1.0 -1.4724270381537334 -2.9131435001704618
upperback 0.16248940535954404 -2.3006905279246204 1.2924533755836907
thorax -4.855936999489611 -1.1314338974233573 3.072760551021107
lowerneck -16.327901989551997 -2.5299467694713393 -2.271378695801647
upperneck 22.627267782332382 -3.0105447614906327 0.27886989457808403
head 9.905320231608775 -1.5585294976385484 0.17332733860470292
lclavicle 4.1916247027077097e-16 -7.903029296039122e-16
lhumerus -24.575703103464374 -0.13651053986176898 79.63736763147982
lradius 28.175471115439677
lwrist 6.19978198685802
lhand -28.314297676072794 20.273098381579242
lfingers nan
lthumb -1.6575751976483966 50.552779087570066
rclavicle 3.13970136039104e-16 -8.693086797006145e-16
rhumerus -34.72868852263022 -21.97898264795356 -79.08555988921987
rradius 31.615696948503423
rwrist 0.9950681885692649
rhand -18.039677620328916 -1.0
rfingers nan
rthumb 8.504348461944147 -8.259948451513047
58
root 0.8508159663632802 17.858791133249742 40.837508332691655 -3.107857385380984 -2.9712304601062787 1.9611871580597107
lfemur 11.243063107842879 -3.921655380840112 -25.258974776759366
ltibia 28.136355986940334
lfoot -3.3410393812571337 -5.871609229798819
ltoes -2.9781589365495234
rfemur -25.104063551690167 1.5481878559156408 20.3311174189828
rtibia 35.73535242196091
rfoot -11.03163152980028 -3.2858286705652193
rtoes -3.1127395133787252
lowerback -1.0 -1.5345955388540495 -2.3896039188623686
upperback 0.1352334130722497 -2.273527389868986 1.530966014713924
thorax -4.852856012164728 -1.1331733968998314 3.0600366638241883
lowerneck -16.311474834586694 -2.534539920001687 -2.2557146556060186
upperneck 22.63916636257151 -3.011297537121237 0.12863808331783
head 9.909505470953265 -1.5649631702983575 0.10187766589355346
lclavicle 4.1695437193128597e-16 -7.915400080804416e-16
lhumerus -24.885677888301707 -0.04655465893602617 79.75927996924753
lradius 27.52228753884175
lwrist 6.478159762276782
lhand -28.257666330903785 20.26341423676432
lfingers nan
lthumb -1.6164323388988253 50.54186902476448
rclavicle 3.121555438942134e-16 -8.703692592329562e-16
rhumerus -34.87295911216351 -22.984941061937707 -77.99469021281597
rradius 32.03828640416824
rwrist 2.3280054678253874
rhand -18.020975552556866 -1.0
rfingers nan
rthumb 8.511868933211225 -8.253800034912937
59
root 0.8955838500598493 17.865581004667522 41.63283825288309 -3.0280580356090168 -3.2101377230250483 0.8800675297588214
lfemur 9.786288027899403 -3.289536132665895 -23.475927337666853
ltibia 33.130744158707195
lfoot -4.034355673669279 -4.91693677344956
ltoes -3.0340570983086987
rfemur -25.244184141376365 1.8859952646958948 21.384796780016412
rtibia 32.84185854401481
rfoot -11.423461020356276 -5.260989299172053
rtoes -2.517656082704653
lowerback -1.0 -1.5593283017921544 -1.6448363202796012
upperback 0.10395854474286305 -2.166978436779023 1.7636217452539975
thorax -4.91260787483128 -1.0895441458741915 2.9935144150006505
lowerneck -16.33476277332562 -2.548590305422988 -2.2078496432556274
upperneck 22.565352698508104 -3.033645841529207 0.032717931672164746
head 9.884255400490078 -1.5788339177351245 0.048478704824019773
lclavicle 4.153197892737012e-16 -7.928495015339469e-16
lhumerus -25.271992131547048 0.012157237567625323 79.940470348975
lradius 26.585008679485505
lwrist 6.6124389846292475
lhand -28.287979129942517 20.03196176070466
lfingers nan
lthumb -1.6294227769648044 50.379249505454595
rclavicle 3.1138560242704133e-16 -8.710382914297254e-16
rhumerus -34.76817476623617 -23.986392300993497 -77.04710512690716
rradius 32.27562577643836
rwrist 3.2793194757850093
rhand -18.047623020072237 -1.0
rfingers nan
rthumb 8.523052858691454 -8.248957600027463
